<?xml version="1.0" encoding="utf-8"?>
<!-- Generator: Adobe Illustrator 16.0.0, SVG Export Plug-In . SVG Version: 6.00 Build 0)  -->
<!DOCTYPE svg PUBLIC "-//W3C//DTD SVG 1.1//EN" "http://www.w3.org/Graphics/SVG/1.1/DTD/svg11.dtd">
<svg version="1.1" id="Capa_1" xmlns="http://www.w3.org/2000/svg" xmlns:xlink="http://www.w3.org/1999/xlink" x="0px" y="0px"
	 width="300px" height="300px" viewBox="0 0 300 300" enable-background="new 0 0 300 300" xml:space="preserve">
<g>
	<g>
		<path fill="#1D1D1B" d="M57.632,256.074c-6.528,0-11.826-2.12-15.907-6.363c-4.076-4.241-6.115-9.867-6.115-16.882
			c0-7.018,2.066-12.63,6.198-16.847c4.132-4.211,9.476-6.321,16.028-6.321s11.868,2.03,15.944,6.078
			c4.079,4.053,6.119,9.336,6.119,15.862c0,1.579-0.111,3.051-0.326,4.402H45.155c0.215,3.756,1.478,6.734,3.79,8.933
			c2.31,2.204,5.207,3.309,8.687,3.309c5.056,0,8.616-2.093,10.684-6.283h10.03c-1.356,4.134-3.831,7.516-7.42,10.156
			C67.339,254.758,62.905,256.074,57.632,256.074z M66.521,220.792c-2.392-2.197-5.3-3.297-8.727-3.297
			c-3.425,0-6.294,1.1-8.605,3.297c-2.311,2.205-3.629,5.158-3.955,8.854h24.957C70.136,225.95,68.913,222.997,66.521,220.792z"/>
		<path fill="#1D1D1B" d="M92.052,249.711c-4.081-4.241-6.12-9.858-6.12-16.847c0-6.982,2.053-12.599,6.16-16.836
			c4.104-4.248,9.39-6.367,15.863-6.367c5.437,0,9.937,1.295,13.5,3.875c3.56,2.585,5.967,6.269,7.217,11.057h-10.03
			c-1.687-4.735-5.25-7.098-10.687-7.098c-3.808,0-6.838,1.344-9.095,4.034c-2.257,2.69-3.383,6.459-3.383,11.3
			c0,4.837,1.126,8.619,3.383,11.332c2.256,2.722,5.287,4.084,9.095,4.084c5.385,0,8.944-2.368,10.687-7.099h10.03
			c-1.305,4.565-3.752,8.198-7.338,10.889c-3.589,2.691-8.047,4.039-13.378,4.039C101.431,256.074,96.126,253.954,92.052,249.711z"
			/>
		<path fill="#1D1D1B" d="M157.506,256.074c-6.557,0-11.95-2.134-16.192-6.402c-4.238-4.27-6.363-9.869-6.363-16.808
			c0-6.928,2.188-12.527,6.567-16.797c4.375-4.269,9.828-6.406,16.352-6.406c6.528,0,11.977,2.138,16.354,6.406
			c4.376,4.27,6.565,9.855,6.565,16.762c0,6.903-2.243,12.508-6.728,16.799C169.573,253.924,164.054,256.074,157.506,256.074z
			 M167.17,244.161c2.719-2.713,4.076-6.495,4.076-11.332c0-4.841-1.317-8.609-3.957-11.3c-2.637-2.69-5.831-4.034-9.582-4.034
			c-3.754,0-6.904,1.344-9.46,4.034c-2.558,2.69-3.833,6.473-3.833,11.335c0,4.869,1.25,8.65,3.751,11.341
			c2.5,2.691,5.612,4.04,9.341,4.04C161.229,248.245,164.448,246.883,167.17,244.161z"/>
		<path fill="#1D1D1B" d="M199.303,210.397v7.828c2.885-5.704,7.366-8.564,13.459-8.564v9.625h-2.366
			c-3.642,0-6.403,0.926-8.277,2.775c-1.877,1.849-2.815,5.057-2.815,9.625v23.652h-9.299v-44.941H199.303z"/>
		<path fill="#1D1D1B" d="M224.342,249.509c-4.078-4.377-6.115-9.981-6.115-16.804c0-6.823,2.021-12.368,6.076-16.638
			c4.05-4.269,9.092-6.406,15.126-6.406c3.536,0,6.65,0.808,9.342,2.407c2.69,1.604,4.772,3.711,6.239,6.321v-7.992h9.381v44.941
			h-9.381v-8.403c-1.522,2.775-3.617,4.989-6.279,6.651c-2.664,1.658-5.766,2.487-9.302,2.487
			C233.45,256.074,228.425,253.884,224.342,249.509z M250.973,243.878c2.692-2.745,4.037-6.429,4.037-11.049
			c0-4.624-1.345-8.294-4.037-11.012c-2.692-2.717-5.887-4.079-9.582-4.079c-3.699,0-6.892,1.334-9.584,3.994
			c-2.691,2.665-4.04,6.309-4.04,10.929c0,4.623,1.349,8.335,4.04,11.136c2.692,2.803,5.885,4.204,9.584,4.204
			C245.086,248.001,248.28,246.626,250.973,243.878z"/>
	</g>
	<g>
		<path fill-rule="evenodd" clip-rule="evenodd" fill="#0CCA4A" d="M206.997,117.556c4.853-23.106,9.179-46.315,13.811-69.473
			c0.564-2.813-0.766-3.267-2.945-2.737c-17.153,4.183-33.261,9.859-48.341,18.682c-7.014,4.101-13.85,9.842-19.614,15.548
			c-10.387,10.279-17.596,23.326-22.782,36.887c-6.956,18.188-14.529,42.18-0.726,59.285c3.454,4.272,9.255,8.515,14.61,10.027
			c11.828,3.348,24.327,0.062,33.391-8.055C192.174,161.813,202.162,140.565,206.997,117.556z"/>
		<path fill-rule="evenodd" clip-rule="evenodd" fill="#9EC935" d="M93,117.556c-4.854-23.106-9.181-46.315-13.81-69.473
			c-0.565-2.813,0.765-3.267,2.944-2.737c17.152,4.183,33.259,9.859,48.338,18.682c7.016,4.101,13.852,9.842,19.621,15.548
			c10.382,10.279,17.594,23.326,22.781,36.887c6.953,18.188,14.525,42.18,0.722,59.285c-3.451,4.272-9.257,8.515-14.61,10.027
			c-11.826,3.348-24.321,0.062-33.392-8.055C107.826,161.813,97.835,140.565,93,117.556z"/>
	</g>
</g>
</svg>
