<?xml version="1.0" encoding="utf-8"?>
<!-- Generator: Adobe Illustrator 16.0.0, SVG Export Plug-In . SVG Version: 6.00 Build 0)  -->
<!DOCTYPE svg PUBLIC "-//W3C//DTD SVG 1.1//EN" "http://www.w3.org/Graphics/SVG/1.1/DTD/svg11.dtd">
<svg version="1.1" id="Capa_1" xmlns="http://www.w3.org/2000/svg" xmlns:xlink="http://www.w3.org/1999/xlink" x="0px" y="0px"
	 width="300px" height="300px" viewBox="0 0 300 300" enable-background="new 0 0 300 300" xml:space="preserve">
<g>
	<path fill="#1D1D1B" d="M290.049,485.962c-5.92,0-10.73-1.924-14.43-5.772c-3.701-3.849-5.551-8.954-5.551-15.317
		c0-6.365,1.875-11.458,5.625-15.281c3.748-3.822,8.596-5.735,14.541-5.735c5.943,0,10.766,1.839,14.467,5.513
		c3.699,3.676,5.549,8.473,5.549,14.393c0,1.432-0.1,2.764-0.295,3.996h-31.229c0.197,3.404,1.344,6.105,3.441,8.104
		c2.096,1.998,4.723,2.997,7.881,2.997c4.588,0,7.818-1.898,9.693-5.698h9.102c-1.232,3.75-3.477,6.82-6.732,9.213
		C298.855,484.766,294.834,485.962,290.049,485.962z M298.115,453.956c-2.172-1.998-4.811-2.996-7.918-2.996
		c-3.109,0-5.711,0.998-7.809,2.996c-2.096,1.998-3.293,4.676-3.588,8.029h22.645C301.395,458.632,300.285,455.954,298.115,453.956z
		"/>
	<path fill="#1D1D1B" d="M321.275,480.189c-3.699-3.849-5.549-8.941-5.549-15.281c0-6.339,1.861-11.433,5.586-15.28
		c3.725-3.849,8.521-5.772,14.393-5.772c4.934,0,9.016,1.173,12.248,3.515c3.23,2.344,5.414,5.687,6.549,10.027H345.4
		c-1.531-4.292-4.762-6.438-9.695-6.438c-3.453,0-6.203,1.221-8.25,3.662c-2.049,2.442-3.07,5.859-3.07,10.25
		s1.021,7.818,3.07,10.285c2.047,2.468,4.797,3.7,8.25,3.7c4.885,0,8.115-2.146,9.695-6.438h9.102
		c-1.184,4.145-3.404,7.438-6.66,9.879c-3.256,2.442-7.301,3.664-12.137,3.664C329.785,485.962,324.977,484.038,321.275,480.189z"/>
	<path fill="#1D1D1B" d="M380.66,485.962c-5.945,0-10.842-1.936-14.689-5.81c-3.848-3.872-5.771-8.954-5.771-15.244
		s1.984-11.37,5.957-15.243c3.971-3.873,8.916-5.81,14.838-5.81c5.92,0,10.865,1.937,14.836,5.81s5.957,8.941,5.957,15.207
		s-2.035,11.347-6.105,15.243C391.611,484.013,386.604,485.962,380.66,485.962z M389.43,475.157
		c2.465-2.467,3.699-5.895,3.699-10.285s-1.197-7.808-3.588-10.25c-2.395-2.441-5.291-3.662-8.695-3.662s-6.266,1.221-8.584,3.662
		c-2.32,2.442-3.479,5.871-3.479,10.286c0,4.416,1.135,7.845,3.404,10.286c2.268,2.441,5.094,3.663,8.473,3.663
		S386.961,477.625,389.43,475.157z"/>
	<path fill="#1D1D1B" d="M418.584,444.521v7.104c2.615-5.181,6.684-7.771,12.211-7.771v8.731h-2.146
		c-3.307,0-5.809,0.84-7.512,2.517c-1.701,1.678-2.553,4.588-2.553,8.731v21.461h-8.436v-40.774H418.584z"/>
	<path fill="#1D1D1B" d="M441.301,480.005c-3.699-3.971-5.549-9.053-5.549-15.244s1.836-11.223,5.512-15.096s8.252-5.81,13.727-5.81
		c3.207,0,6.031,0.729,8.475,2.183c2.441,1.456,4.328,3.367,5.66,5.735v-7.252h8.51v40.774h-8.51v-7.623
		c-1.381,2.517-3.281,4.527-5.697,6.031c-2.418,1.506-5.23,2.258-8.438,2.258C449.564,485.962,445.002,483.976,441.301,480.005z
		 M465.463,474.898c2.441-2.491,3.662-5.833,3.662-10.026s-1.221-7.523-3.662-9.99c-2.443-2.467-5.342-3.7-8.695-3.7
		c-3.355,0-6.254,1.209-8.695,3.626c-2.441,2.418-3.662,5.723-3.662,9.916s1.221,7.561,3.662,10.101
		c2.441,2.542,5.34,3.812,8.695,3.812C460.121,478.636,463.02,477.39,465.463,474.898z"/>
</g>
<g>
	<path fill-rule="evenodd" clip-rule="evenodd" fill="#0CCA4A" d="M241.826,465.728c2.76-13.148,5.223-26.355,7.857-39.532
		c0.322-1.602-0.436-1.859-1.676-1.559c-9.76,2.381-18.926,5.611-27.506,10.631c-3.992,2.334-7.883,5.601-11.162,8.847
		c-5.91,5.85-10.014,13.273-12.965,20.991c-3.957,10.35-8.268,24.002-0.412,33.733c1.965,2.434,5.266,4.846,8.314,5.708
		c6.729,1.902,13.84,0.033,19-4.585C233.391,490.91,239.074,478.819,241.826,465.728z"/>
	<path fill-rule="evenodd" clip-rule="evenodd" fill="#9EC935" d="M176.957,465.728c-2.762-13.148-5.225-26.355-7.857-39.532
		c-0.322-1.602,0.436-1.859,1.674-1.559c9.762,2.381,18.928,5.611,27.508,10.631c3.992,2.334,7.881,5.601,11.164,8.847
		c5.908,5.85,10.012,13.273,12.963,20.991c3.957,10.35,8.266,24.002,0.41,33.733c-1.963,2.434-5.266,4.846-8.313,5.708
		c-6.729,1.902-13.84,0.033-19-4.585C185.393,490.91,179.709,478.819,176.957,465.728z"/>
</g>
<g>
	<g>
		<path d="M121.299,167.396c-5.199,0-9.422-1.69-12.671-5.068c-3.249-3.38-4.873-7.863-4.873-13.451
			c0-5.59,1.645-10.062,4.938-13.419c3.291-3.356,7.548-5.037,12.769-5.037s9.455,1.615,12.704,4.841
			c3.25,3.228,4.874,7.44,4.874,12.639c0,1.257-0.087,2.427-0.259,3.509h-27.421c0.171,2.989,1.179,5.362,3.021,7.115
			c1.841,1.755,4.147,2.633,6.92,2.633c4.029,0,6.866-1.667,8.513-5.004h7.993c-1.084,3.294-3.054,5.989-5.914,8.09
			C129.032,166.345,125.5,167.396,121.299,167.396z M128.382,139.291c-1.907-1.754-4.224-2.631-6.953-2.631
			c-2.73,0-5.016,0.877-6.856,2.631c-1.841,1.755-2.892,4.106-3.152,7.051h19.885C131.263,143.396,130.288,141.045,128.382,139.291z
			"/>
		<path d="M148.721,162.327c-3.25-3.38-4.874-7.853-4.874-13.419c0-5.566,1.634-10.039,4.906-13.418
			c3.27-3.379,7.482-5.069,12.639-5.069c4.332,0,7.917,1.03,10.755,3.086c2.838,2.058,4.755,4.993,5.751,8.805h-7.993
			c-1.345-3.769-4.181-5.653-8.513-5.653c-3.033,0-5.446,1.072-7.245,3.216c-1.799,2.145-2.695,5.145-2.695,9.001
			s0.896,6.865,2.695,9.032c1.799,2.166,4.212,3.249,7.245,3.249c4.289,0,7.125-1.884,8.513-5.654h7.993
			c-1.04,3.64-2.99,6.532-5.849,8.676c-2.859,2.144-6.411,3.217-10.657,3.217C156.192,167.396,151.97,165.705,148.721,162.327z"/>
		<path d="M200.867,167.396c-5.221,0-9.52-1.699-12.899-5.102c-3.379-3.399-5.067-7.863-5.067-13.386s1.741-9.984,5.23-13.386
			c3.487-3.4,7.829-5.101,13.03-5.101c5.197,0,9.541,1.701,13.026,5.101c3.487,3.401,5.232,7.852,5.232,13.354
			c0,5.501-1.787,9.963-5.362,13.385C210.483,165.684,206.086,167.396,200.867,167.396z M208.568,157.908
			c2.164-2.167,3.248-5.176,3.248-9.032s-1.051-6.856-3.15-9.001c-2.103-2.144-4.646-3.216-7.636-3.216s-5.502,1.072-7.538,3.216
			c-2.037,2.145-3.054,5.155-3.054,9.032c0,3.878,0.996,6.888,2.988,9.033s4.474,3.217,7.44,3.217
			C203.835,161.157,206.4,160.074,208.568,157.908z"/>
		<path d="M234.169,131.006v6.239c2.297-4.549,5.869-6.824,10.723-6.824v7.667h-1.884c-2.905,0-5.103,0.737-6.597,2.21
			s-2.242,4.028-2.242,7.667v18.845h-7.408v-35.805H234.169z"/>
		<path d="M254.116,162.165c-3.247-3.487-4.872-7.949-4.872-13.387c0-5.437,1.613-9.855,4.842-13.256
			c3.228-3.4,7.244-5.101,12.053-5.101c2.815,0,5.296,0.64,7.441,1.917c2.144,1.279,3.8,2.957,4.97,5.037v-6.368h7.474v35.805
			h-7.474v-6.693c-1.212,2.21-2.881,3.976-5.003,5.295c-2.123,1.323-4.593,1.983-7.408,1.983
			C261.374,167.396,257.368,165.65,254.116,162.165z M275.335,157.681c2.144-2.188,3.215-5.122,3.215-8.804
			c0-3.683-1.071-6.607-3.215-8.773c-2.146-2.166-4.691-3.249-7.637-3.249s-5.491,1.062-7.635,3.184
			c-2.144,2.124-3.216,5.025-3.216,8.708c0,3.682,1.072,6.638,3.216,8.869c2.144,2.232,4.689,3.348,7.635,3.348
			S273.188,159.868,275.335,157.681z"/>
	</g>
	<g>
		<path fill-rule="evenodd" clip-rule="evenodd" fill="#0CCA4A" d="M78.954,149.627c2.424-11.546,4.586-23.143,6.9-34.714
			c0.282-1.406-0.382-1.632-1.471-1.368c-8.571,2.091-16.62,4.928-24.155,9.335c-3.505,2.049-6.921,4.918-9.801,7.768
			c-5.19,5.137-8.793,11.656-11.384,18.433c-3.476,9.089-7.26,21.077-0.362,29.622c1.726,2.138,4.625,4.256,7.301,5.014
			c5.91,1.67,12.154,0.028,16.684-4.026C71.546,171.741,76.538,161.124,78.954,149.627z"/>
		<path fill-rule="evenodd" clip-rule="evenodd" fill="#9EC935" d="M21.991,149.627c-2.425-11.546-4.587-23.143-6.9-34.714
			c-0.282-1.406,0.382-1.632,1.471-1.368c8.571,2.091,16.62,4.928,24.154,9.335c3.505,2.049,6.921,4.918,9.804,7.768
			c5.188,5.137,8.792,11.656,11.383,18.433c3.476,9.089,7.259,21.077,0.361,29.622c-1.725,2.138-4.625,4.256-7.299,5.014
			c-5.909,1.67-12.154,0.028-16.686-4.026C29.398,171.741,24.407,161.124,21.991,149.627z"/>
	</g>
</g>
</svg>
