<?xml version="1.0" encoding="utf-8"?>
<!-- Generator: Adobe Illustrator 16.0.0, SVG Export Plug-In . SVG Version: 6.00 Build 0)  -->
<!DOCTYPE svg PUBLIC "-//W3C//DTD SVG 1.1//EN" "http://www.w3.org/Graphics/SVG/1.1/DTD/svg11.dtd">
<svg version="1.1" id="Capa_1" xmlns="http://www.w3.org/2000/svg" xmlns:xlink="http://www.w3.org/1999/xlink" x="0px" y="0px"
	 width="200px" height="200px" viewBox="0 0 200 200" enable-background="new 0 0 200 200" xml:space="preserve">
<g>
	<circle fill="#FDD525" cx="100.667" cy="100.318" r="80"/>
	<circle fill="#FCE466" cx="100.667" cy="100.317" r="67.228"/>
	<g>
		<g>
			<g>
				<g>
					<path fill-rule="evenodd" clip-rule="evenodd" fill="#F1AA1E" d="M131.582,101.101c2.635-12.531,4.983-25.118,7.494-37.681
						c0.308-1.527-0.414-1.773-1.598-1.485c-9.304,2.27-18.039,5.349-26.225,10.134c-3.801,2.222-7.509,5.339-10.636,8.431
						c-5.634,5.576-9.547,12.653-12.358,20.009c-3.775,9.865-7.882,22.877-0.395,32.153c1.874,2.321,5.021,4.618,7.927,5.439
						c6.415,1.815,13.193,0.033,18.111-4.367C123.547,125.102,128.964,113.58,131.582,101.101z"/>
				</g>
				<g>
					<path fill-rule="evenodd" clip-rule="evenodd" fill="#FDD525" d="M69.748,101.101C67.119,88.57,64.77,75.982,62.257,63.42
						c-0.305-1.527,0.417-1.773,1.596-1.485c9.306,2.27,18.044,5.349,26.223,10.134c3.804,2.222,7.514,5.339,10.64,8.431
						c5.632,5.576,9.545,12.653,12.359,20.009c3.771,9.865,7.878,22.877,0.392,32.153c-1.87,2.321-5.022,4.618-7.924,5.439
						c-6.415,1.815-13.193,0.033-18.114-4.367C77.789,125.102,72.37,113.58,69.748,101.101z"/>
				</g>
			</g>
		</g>
	</g>
</g>
</svg>
